<svg xmlns="http://www.w3.org/2000/svg" xmlns:v="https://svgstorm.com"
viewBox = "0 0 144 144"
width="144"
height="144">
<g fill="None" fill-opacity="0.0" stroke="#292A2D" stroke-opacity="1.00" stroke-width="0.3"><path d="
M 0.00 144.00 
L 144.00 144.00
L 144.00 0.00
L 0.00 0.00
L 0.00 144.00
M 123.00 32.00 
C 123.00 58.67 123.00 85.33 123.00 112.00
C 110.33 112.00 97.67 112.00 85.00 112.00
C 85.00 85.33 85.00 58.67 85.00 32.00
C 97.67 32.00 110.33 32.00 123.00 32.00
M 44.00 47.00 
C 53.50 55.01 61.55 65.04 71.00 73.00
C 65.73 79.36 58.88 84.22 53.00 90.00
C 51.43 92.28 49.33 94.57 47.00 96.00
C 41.68 100.52 36.45 105.70 32.00 111.00
C 29.36 110.84 27.38 107.98 26.00 106.00
C 23.96 105.19 23.03 102.73 21.00 102.00
C 20.95 99.78 23.29 98.01 25.00 97.00
C 29.14 94.30 31.91 89.65 36.00 87.00
C 37.57 84.72 39.67 82.43 42.00 81.00
C 45.11 79.27 46.92 75.67 50.00 74.00
C 45.53 66.45 37.42 60.19 31.00 54.00
C 27.20 51.62 24.76 47.32 21.00 45.00
C 21.16 42.36 24.02 40.38 26.00 39.00
C 27.26 37.07 29.00 35.09 31.00 34.00
C 35.65 37.85 40.22 42.37 44.00 47.00 Z"/>
</g>
<g fill="None" fill-opacity="0.0" stroke="#FD5085" stroke-opacity="1.00" stroke-width="0.3"><path d="
M 123.00 32.00 
C 110.33 32.00 97.67 32.00 85.00 32.00
C 85.00 58.67 85.00 85.33 85.00 112.00
C 97.67 112.00 110.33 112.00 123.00 112.00
C 123.00 85.33 123.00 58.67 123.00 32.00 Z"/>
</g>
<g fill="None" fill-opacity="0.0" stroke="#FBEAEA" stroke-opacity="1.00" stroke-width="0.3"><path d="
M 26.00 39.00 
C 25.04 40.57 23.68 42.25 22.00 43.00
C 23.09 47.63 28.82 49.87 31.00 54.00
C 37.42 60.19 45.53 66.45 50.00 74.00
C 46.92 75.67 45.11 79.27 42.00 81.00
C 40.43 83.28 38.33 85.57 36.00 87.00
C 31.91 89.65 29.14 94.30 25.00 97.00
C 24.34 98.93 21.61 99.67 22.00 102.00
C 23.57 102.96 25.25 104.32 26.00 106.00
C 27.38 107.98 29.36 110.84 32.00 111.00
C 36.45 105.70 41.68 100.52 47.00 96.00
C 48.57 93.72 50.67 91.43 53.00 90.00
C 58.88 84.22 65.73 79.36 71.00 73.00
C 61.55 65.04 53.50 55.01 44.00 47.00
C 39.35 43.15 34.78 38.63 31.00 34.00
C 29.00 35.09 27.26 37.07 26.00 39.00 Z"/>
</g>
<g fill="None" fill-opacity="0.0" stroke="#8D8688" stroke-opacity="1.00" stroke-width="0.3"><path d="
M 44.00 47.00 
C 40.22 42.37 35.65 37.85 31.00 34.00
C 34.78 38.63 39.35 43.15 44.00 47.00 Z"/>
</g>
<g fill="None" fill-opacity="0.0" stroke="#8C8486" stroke-opacity="1.00" stroke-width="0.3"><path d="
M 31.00 54.00 
C 28.82 49.87 23.09 47.63 22.00 43.00
C 23.68 42.25 25.04 40.57 26.00 39.00
C 24.02 40.38 21.16 42.36 21.00 45.00
C 24.76 47.32 27.20 51.62 31.00 54.00 Z"/>
</g>
<g fill="None" fill-opacity="0.0" stroke="#888183" stroke-opacity="1.00" stroke-width="0.3"><path d="
M 36.00 87.00 
C 38.33 85.57 40.43 83.28 42.00 81.00
C 39.67 82.43 37.57 84.72 36.00 87.00 Z"/>
</g>
<g fill="None" fill-opacity="0.0" stroke="#8A8384" stroke-opacity="1.00" stroke-width="0.3"><path d="
M 47.00 96.00 
C 49.33 94.57 51.43 92.28 53.00 90.00
C 50.67 91.43 48.57 93.72 47.00 96.00 Z"/>
</g>
<g fill="None" fill-opacity="0.0" stroke="#8B8385" stroke-opacity="1.00" stroke-width="0.3"><path d="
M 26.00 106.00 
C 25.25 104.32 23.57 102.96 22.00 102.00
C 21.61 99.67 24.34 98.93 25.00 97.00
C 23.29 98.01 20.95 99.78 21.00 102.00
C 23.03 102.73 23.96 105.19 26.00 106.00 Z"/>
</g>
<g fill="#292A2D" fill-opacity="1.00" stroke="None">
<path d="
M 0.00 144.00 
L 144.00 144.00
L 144.00 0.00
L 0.00 0.00
L 0.00 144.00
M 123.00 32.00 
C 123.00 58.67 123.00 85.33 123.00 112.00
C 110.33 112.00 97.67 112.00 85.00 112.00
C 85.00 85.33 85.00 58.67 85.00 32.00
C 97.67 32.00 110.33 32.00 123.00 32.00
M 44.00 47.00 
C 53.50 55.01 61.55 65.04 71.00 73.00
C 65.73 79.36 58.88 84.22 53.00 90.00
C 51.43 92.28 49.33 94.57 47.00 96.00
C 41.68 100.52 36.45 105.70 32.00 111.00
C 29.36 110.84 27.38 107.98 26.00 106.00
C 23.96 105.19 23.03 102.73 21.00 102.00
C 20.95 99.78 23.29 98.01 25.00 97.00
C 29.14 94.30 31.91 89.65 36.00 87.00
C 37.57 84.72 39.67 82.43 42.00 81.00
C 45.11 79.27 46.92 75.67 50.00 74.00
C 45.53 66.45 37.42 60.19 31.00 54.00
C 27.20 51.62 24.76 47.32 21.00 45.00
C 21.16 42.36 24.02 40.38 26.00 39.00
C 27.26 37.07 29.00 35.09 31.00 34.00
C 35.65 37.85 40.22 42.37 44.00 47.00 Z"/>
</g>
<g fill="#FD5085" fill-opacity="1.00" stroke="None">
<path d="
M 123.00 32.00 
C 110.33 32.00 97.67 32.00 85.00 32.00
C 85.00 58.67 85.00 85.33 85.00 112.00
C 97.67 112.00 110.33 112.00 123.00 112.00
C 123.00 85.33 123.00 58.67 123.00 32.00 Z"/>
</g>
<g fill="#FBEAEA" fill-opacity="1.00" stroke="None">
<path d="
M 26.00 39.00 
C 25.04 40.57 23.68 42.25 22.00 43.00
C 23.09 47.63 28.82 49.87 31.00 54.00
C 37.42 60.19 45.53 66.45 50.00 74.00
C 46.92 75.67 45.11 79.27 42.00 81.00
C 40.43 83.28 38.33 85.57 36.00 87.00
C 31.91 89.65 29.14 94.30 25.00 97.00
C 24.34 98.93 21.61 99.67 22.00 102.00
C 23.57 102.96 25.25 104.32 26.00 106.00
C 27.38 107.98 29.36 110.84 32.00 111.00
C 36.45 105.70 41.68 100.52 47.00 96.00
C 48.57 93.72 50.67 91.43 53.00 90.00
C 58.88 84.22 65.73 79.36 71.00 73.00
C 61.55 65.04 53.50 55.01 44.00 47.00
C 39.35 43.15 34.78 38.63 31.00 34.00
C 29.00 35.09 27.26 37.07 26.00 39.00 Z"/>
</g>
<g fill="#8D8688" fill-opacity="1.00" stroke="None">
<path d="
M 44.00 47.00 
C 40.22 42.37 35.65 37.85 31.00 34.00
C 34.78 38.63 39.35 43.15 44.00 47.00 Z"/>
</g>
<g fill="#8C8486" fill-opacity="1.00" stroke="None">
<path d="
M 31.00 54.00 
C 28.82 49.87 23.09 47.63 22.00 43.00
C 23.68 42.25 25.04 40.57 26.00 39.00
C 24.02 40.38 21.16 42.36 21.00 45.00
C 24.76 47.32 27.20 51.62 31.00 54.00 Z"/>
</g>
<g fill="#888183" fill-opacity="1.00" stroke="None">
<path d="
M 36.00 87.00 
C 38.33 85.57 40.43 83.28 42.00 81.00
C 39.67 82.43 37.57 84.72 36.00 87.00 Z"/>
</g>
<g fill="#8A8384" fill-opacity="1.00" stroke="None">
<path d="
M 47.00 96.00 
C 49.33 94.57 51.43 92.28 53.00 90.00
C 50.67 91.43 48.57 93.72 47.00 96.00 Z"/>
</g>
<g fill="#8B8385" fill-opacity="1.00" stroke="None">
<path d="
M 26.00 106.00 
C 25.25 104.32 23.57 102.96 22.00 102.00
C 21.61 99.67 24.34 98.93 25.00 97.00
C 23.29 98.01 20.95 99.78 21.00 102.00
C 23.03 102.73 23.96 105.19 26.00 106.00 Z"/>
</g>
</svg>