<svg xmlns="http://www.w3.org/2000/svg" xmlns:v="https://svgstorm.com"
viewBox = "0 0 144 144"
width="144"
height="144">
<g fill="None" fill-opacity="0.0" stroke="#292A2D" stroke-opacity="1.00" stroke-width="0.3"><path d="
M 0.00 144.00 
L 144.00 144.00
L 144.00 0.00
L 0.00 0.00
L 0.00 144.00
M 123.00 32.00 
C 123.00 58.67 123.00 85.33 123.00 112.00
C 110.33 112.00 97.67 112.00 85.00 112.00
C 85.00 85.33 85.00 58.67 85.00 32.00
C 97.67 32.00 110.33 32.00 123.00 32.00
M 44.00 47.00 
C 53.44 55.07 61.59 65.00 71.00 73.00
C 65.73 79.36 58.88 84.22 53.00 90.00
C 51.00 92.00 49.13 94.18 47.00 96.00
C 41.69 100.53 36.43 105.69 32.00 111.00
C 29.36 110.84 27.38 107.98 26.00 106.00
C 24.57 104.57 22.57 103.19 21.00 102.00
C 20.95 99.78 23.29 98.01 25.00 97.00
C 28.73 93.82 32.32 90.14 36.00 87.00
C 38.00 85.00 39.87 82.82 42.00 81.00
C 44.65 78.73 47.27 76.07 50.00 74.00
C 45.53 66.45 37.42 60.19 31.00 54.00
C 27.63 51.12 24.44 47.70 21.00 45.00
C 21.16 42.36 24.02 40.38 26.00 39.00
C 27.02 37.80 29.17 34.00 31.00 34.00
C 34.59 34.00 41.64 44.64 44.00 47.00 Z"/>
</g>
<g fill="None" fill-opacity="0.0" stroke="#FD5085" stroke-opacity="1.00" stroke-width="0.3"><path d="
M 123.00 32.00 
C 110.33 32.00 97.67 32.00 85.00 32.00
C 85.00 58.67 85.00 85.33 85.00 112.00
C 97.67 112.00 110.33 112.00 123.00 112.00
C 123.00 85.33 123.00 58.67 123.00 32.00 Z"/>
</g>
<g fill="None" fill-opacity="0.0" stroke="#FBEAEA" stroke-opacity="1.00" stroke-width="0.3"><path d="
M 26.00 39.00 
C 24.82 40.38 23.85 42.39 22.00 43.00
C 23.09 47.63 28.82 49.87 31.00 54.00
C 37.42 60.19 45.53 66.45 50.00 74.00
C 47.27 76.07 44.65 78.73 42.00 81.00
C 40.00 83.00 38.13 85.18 36.00 87.00
C 32.32 90.14 28.73 93.82 25.00 97.00
C 23.73 98.37 22.09 100.11 22.00 102.00
C 23.57 102.96 25.25 104.32 26.00 106.00
C 27.38 107.98 29.36 110.84 32.00 111.00
C 36.43 105.69 41.69 100.53 47.00 96.00
C 49.00 94.00 50.87 91.82 53.00 90.00
C 58.88 84.22 65.73 79.36 71.00 73.00
C 61.59 65.00 53.44 55.07 44.00 47.00
C 39.41 43.08 34.73 38.68 31.00 34.00
C 29.17 34.00 27.02 37.80 26.00 39.00 Z"/>
</g>
<g fill="None" fill-opacity="0.0" stroke="#8D8688" stroke-opacity="1.00" stroke-width="0.3"><path d="
M 44.00 47.00 
C 41.64 44.64 34.59 34.00 31.00 34.00
C 34.73 38.68 39.41 43.08 44.00 47.00 Z"/>
</g>
<g fill="None" fill-opacity="0.0" stroke="#8C8486" stroke-opacity="1.00" stroke-width="0.3"><path d="
M 31.00 54.00 
C 28.82 49.87 23.09 47.63 22.00 43.00
C 23.85 42.39 24.82 40.38 26.00 39.00
C 24.02 40.38 21.16 42.36 21.00 45.00
C 24.44 47.70 27.63 51.12 31.00 54.00 Z"/>
</g>
<g fill="None" fill-opacity="0.0" stroke="#888183" stroke-opacity="1.00" stroke-width="0.3"><path d="
M 36.00 87.00 
C 38.13 85.18 40.00 83.00 42.00 81.00
C 39.87 82.82 38.00 85.00 36.00 87.00 Z"/>
</g>
<g fill="None" fill-opacity="0.0" stroke="#8A8384" stroke-opacity="1.00" stroke-width="0.3"><path d="
M 47.00 96.00 
C 49.13 94.18 51.00 92.00 53.00 90.00
C 50.87 91.82 49.00 94.00 47.00 96.00 Z"/>
</g>
<g fill="None" fill-opacity="0.0" stroke="#8B8385" stroke-opacity="1.00" stroke-width="0.3"><path d="
M 26.00 106.00 
C 25.25 104.32 23.57 102.96 22.00 102.00
C 22.09 100.11 23.73 98.37 25.00 97.00
C 23.29 98.01 20.95 99.78 21.00 102.00
C 22.57 103.19 24.57 104.57 26.00 106.00 Z"/>
</g>
<g fill="#292A2D" fill-opacity="1.00" stroke="None">
<path d="
M 0.00 144.00 
L 144.00 144.00
L 144.00 0.00
L 0.00 0.00
L 0.00 144.00
M 123.00 32.00 
C 123.00 58.67 123.00 85.33 123.00 112.00
C 110.33 112.00 97.67 112.00 85.00 112.00
C 85.00 85.33 85.00 58.67 85.00 32.00
C 97.67 32.00 110.33 32.00 123.00 32.00
M 44.00 47.00 
C 53.44 55.07 61.59 65.00 71.00 73.00
C 65.73 79.36 58.88 84.22 53.00 90.00
C 51.00 92.00 49.13 94.18 47.00 96.00
C 41.69 100.53 36.43 105.69 32.00 111.00
C 29.36 110.84 27.38 107.98 26.00 106.00
C 24.57 104.57 22.57 103.19 21.00 102.00
C 20.95 99.78 23.29 98.01 25.00 97.00
C 28.73 93.82 32.32 90.14 36.00 87.00
C 38.00 85.00 39.87 82.82 42.00 81.00
C 44.65 78.73 47.27 76.07 50.00 74.00
C 45.53 66.45 37.42 60.19 31.00 54.00
C 27.63 51.12 24.44 47.70 21.00 45.00
C 21.16 42.36 24.02 40.38 26.00 39.00
C 27.02 37.80 29.17 34.00 31.00 34.00
C 34.59 34.00 41.64 44.64 44.00 47.00 Z"/>
</g>
<g fill="#FD5085" fill-opacity="1.00" stroke="None">
<path d="
M 123.00 32.00 
C 110.33 32.00 97.67 32.00 85.00 32.00
C 85.00 58.67 85.00 85.33 85.00 112.00
C 97.67 112.00 110.33 112.00 123.00 112.00
C 123.00 85.33 123.00 58.67 123.00 32.00 Z"/>
</g>
<g fill="#FBEAEA" fill-opacity="1.00" stroke="None">
<path d="
M 26.00 39.00 
C 24.82 40.38 23.85 42.39 22.00 43.00
C 23.09 47.63 28.82 49.87 31.00 54.00
C 37.42 60.19 45.53 66.45 50.00 74.00
C 47.27 76.07 44.65 78.73 42.00 81.00
C 40.00 83.00 38.13 85.18 36.00 87.00
C 32.32 90.14 28.73 93.82 25.00 97.00
C 23.73 98.37 22.09 100.11 22.00 102.00
C 23.57 102.96 25.25 104.32 26.00 106.00
C 27.38 107.98 29.36 110.84 32.00 111.00
C 36.43 105.69 41.69 100.53 47.00 96.00
C 49.00 94.00 50.87 91.82 53.00 90.00
C 58.88 84.22 65.73 79.36 71.00 73.00
C 61.59 65.00 53.44 55.07 44.00 47.00
C 39.41 43.08 34.73 38.68 31.00 34.00
C 29.17 34.00 27.02 37.80 26.00 39.00 Z"/>
</g>
<g fill="#8D8688" fill-opacity="1.00" stroke="None">
<path d="
M 44.00 47.00 
C 41.64 44.64 34.59 34.00 31.00 34.00
C 34.73 38.68 39.41 43.08 44.00 47.00 Z"/>
</g>
<g fill="#8C8486" fill-opacity="1.00" stroke="None">
<path d="
M 31.00 54.00 
C 28.82 49.87 23.09 47.63 22.00 43.00
C 23.85 42.39 24.82 40.38 26.00 39.00
C 24.02 40.38 21.16 42.36 21.00 45.00
C 24.44 47.70 27.63 51.12 31.00 54.00 Z"/>
</g>
<g fill="#888183" fill-opacity="1.00" stroke="None">
<path d="
M 36.00 87.00 
C 38.13 85.18 40.00 83.00 42.00 81.00
C 39.87 82.82 38.00 85.00 36.00 87.00 Z"/>
</g>
<g fill="#8A8384" fill-opacity="1.00" stroke="None">
<path d="
M 47.00 96.00 
C 49.13 94.18 51.00 92.00 53.00 90.00
C 50.87 91.82 49.00 94.00 47.00 96.00 Z"/>
</g>
<g fill="#8B8385" fill-opacity="1.00" stroke="None">
<path d="
M 26.00 106.00 
C 25.25 104.32 23.57 102.96 22.00 102.00
C 22.09 100.11 23.73 98.37 25.00 97.00
C 23.29 98.01 20.95 99.78 21.00 102.00
C 22.57 103.19 24.57 104.57 26.00 106.00 Z"/>
</g>
</svg>